HIERARCHY
ROOT Hips
{
	OFFSET 0.000000 83.214638 0.000000
	CHANNELS 6 Xposition Yposition Zposition Xrotation Yrotation Zrotation
	JOINT Pelvis
	{
		OFFSET 0.000000 0.000000 0.000000
		CHANNELS 3 Xrotation Yrotation Zrotation
		JOINT LeftUpLeg
		{
			OFFSET 8.479700 -4.795502 -0.379100
			CHANNELS 3 Xrotation Yrotation Zrotation
			JOINT LeftLeg
			{
				OFFSET 0.024144 -32.555107 0.112900
				CHANNELS 3 Xrotation Yrotation Zrotation
				JOINT LeftFoot
				{
					OFFSET -0.024144 -32.638630 -3.012600
					CHANNELS 3 Xrotation Yrotation Zrotation
					JOINT LeftToeBase
					{
						OFFSET 0.970200 -13.225400 11.864200
						CHANNELS 3 Xrotation Yrotation Zrotation
						End Site
						{
							OFFSET 0.000000 12.319262 0.000000
						}
					}
					JOINT LFootTongue
					{
						OFFSET 1.142400 -1.059800 6.665200
						CHANNELS 3 Xrotation Yrotation Zrotation
						End Site
						{
							OFFSET 0.000000 12.319262 0.000000
						}
					}
				}
				JOINT LeftPantLeg
				{
					OFFSET 0.918482 -16.533964 -2.284700
					CHANNELS 3 Xrotation Yrotation Zrotation
					End Site
					{
						OFFSET 0.350399 24.744368 0.000000
					}
				}
			}
		}
		JOINT RightUpLeg
		{
			OFFSET -8.479700 -4.795502 -0.379100
			CHANNELS 3 Xrotation Yrotation Zrotation
			JOINT RightLeg
			{
				OFFSET -0.023144 -32.555092 0.112900
				CHANNELS 3 Xrotation Yrotation Zrotation
				JOINT RightFoot
				{
					OFFSET 0.023144 -32.638641 -3.012700
					CHANNELS 3 Xrotation Yrotation Zrotation
					JOINT RightToeBase
					{
						OFFSET -0.970200 -13.225400 11.864200
						CHANNELS 3 Xrotation Yrotation Zrotation
						End Site
						{
							OFFSET 0.000000 12.319244 0.000000
						}
					}
					JOINT RFootTongue
					{
						OFFSET -1.142200 -1.059800 6.665200
						CHANNELS 3 Xrotation Yrotation Zrotation
						End Site
						{
							OFFSET 0.000000 12.319243 0.000000
						}
					}
				}
				JOINT RightPantLeg
				{
					OFFSET -0.919482 -16.533978 -2.284800
					CHANNELS 3 Xrotation Yrotation Zrotation
					End Site
					{
						OFFSET -0.350400 24.744419 0.000000
					}
				}
			}
		}
	}
	JOINT Spine
	{
		OFFSET 0.000000 7.722000 1.166200
		CHANNELS 3 Xrotation Yrotation Zrotation
		JOINT Spine1
		{
			OFFSET 0.000000 12.024101 0.248800
			CHANNELS 3 Xrotation Yrotation Zrotation
			JOINT Spine2
			{
				OFFSET 0.000000 11.502998 -0.491200
				CHANNELS 3 Xrotation Yrotation Zrotation
				JOINT Neck
				{
					OFFSET 0.000000 18.430702 -3.123100
					CHANNELS 3 Xrotation Yrotation Zrotation
					JOINT Head
					{
						OFFSET 0.000000 9.051102 1.034000
						CHANNELS 3 Xrotation Yrotation Zrotation
						JOINT HairB
						{
							OFFSET 0.208400 24.786102 24.822300
							CHANNELS 3 Xrotation Yrotation Zrotation
							End Site
							{
								OFFSET 0.000000 32.263779 0.000000
							}
						}
						JOINT HairA
						{
							OFFSET -7.081100 24.428299 23.196600
							CHANNELS 3 Xrotation Yrotation Zrotation
							End Site
							{
								OFFSET 0.000000 32.263779 0.000000
							}
						}
						JOINT Hat
						{
							OFFSET 16.728800 15.048294 -15.439601
							CHANNELS 3 Xrotation Yrotation Zrotation
							End Site
							{
								OFFSET 0.000000 32.263779 0.000000
							}
						}
					}
				}
				JOINT LeftShoulder
				{
					OFFSET 6.197800 13.665199 -4.064700
					CHANNELS 3 Xrotation Yrotation Zrotation
					JOINT LeftArm
					{
						OFFSET 7.778100 -0.187103 -1.709300
						CHANNELS 3 Xrotation Yrotation Zrotation
						JOINT LeftForeArm
						{
							OFFSET 22.049376 0.000000 0.000000
							CHANNELS 3 Xrotation Yrotation Zrotation
							JOINT LeftHand
							{
								OFFSET 23.009392 0.000000 0.000000
								CHANNELS 3 Xrotation Yrotation Zrotation
								JOINT LeftHandThumb1
								{
									OFFSET 3.507191 -2.063065 3.133727
									CHANNELS 3 Xrotation Yrotation Zrotation
									JOINT LeftHandThumb2
									{
										OFFSET 3.101337 -1.790558 1.790558
										CHANNELS 3 Xrotation Yrotation Zrotation
										JOINT LeftHandThumb3
										{
											OFFSET 3.058640 -1.765907 1.765906
											CHANNELS 3 Xrotation Yrotation Zrotation
											End Site
											{
												OFFSET -0.415260 3.926476 -0.049563
											}
										}
									}
								}
								JOINT LeftHandIndex1
								{
									OFFSET 11.334419 -0.901459 3.706815
									CHANNELS 3 Xrotation Yrotation Zrotation
									JOINT LeftHandIndex2
									{
										OFFSET 3.283112 0.000000 0.000000
										CHANNELS 3 Xrotation Yrotation Zrotation
										JOINT LeftHandIndex3
										{
											OFFSET 3.323853 0.000000 0.000000
											CHANNELS 3 Xrotation Yrotation Zrotation
											End Site
											{
												OFFSET -1.135597 3.097809 0.402452
											}
										}
									}
								}
								JOINT LeftHandMiddle1
								{
									OFFSET 11.335861 0.000000 0.000000
									CHANNELS 3 Xrotation Yrotation Zrotation
									JOINT LeftHandMiddle2
									{
										OFFSET 3.410492 0.000000 0.000000
										CHANNELS 3 Xrotation Yrotation Zrotation
										JOINT LeftHandMiddle3
										{
											OFFSET 3.312172 0.000000 0.000000
											CHANNELS 3 Xrotation Yrotation Zrotation
											End Site
											{
												OFFSET -1.150200 3.080154 0.400270
											}
										}
									}
								}
								JOINT LeftHandRing1
								{
									OFFSET 11.514786 -0.013176 -3.003090
									CHANNELS 3 Xrotation Yrotation Zrotation
									JOINT LeftHandRing2
									{
										OFFSET 3.053307 0.000000 0.000000
										CHANNELS 3 Xrotation Yrotation Zrotation
										JOINT LeftHandRing3
										{
											OFFSET 3.295807 0.000000 0.000000
											CHANNELS 3 Xrotation Yrotation Zrotation
											End Site
											{
												OFFSET -1.281006 3.013344 0.375733
											}
										}
									}
								}
								JOINT LeftHandPinky1
								{
									OFFSET 10.518692 -0.960396 -5.730441
									CHANNELS 3 Xrotation Yrotation Zrotation
									JOINT LeftHandPinky2
									{
										OFFSET 2.861649 0.000000 0.000000
										CHANNELS 3 Xrotation Yrotation Zrotation
										JOINT LeftHandPinky3
										{
											OFFSET 2.863380 0.000000 0.000000
											CHANNELS 3 Xrotation Yrotation Zrotation
											End Site
											{
												OFFSET -0.843597 2.711159 0.369971
											}
										}
									}
								}
							}
							JOINT LSleeve
							{
								OFFSET 6.676277 -0.344902 -1.011730
								CHANNELS 3 Xrotation Yrotation Zrotation
								End Site
								{
									OFFSET 0.000000 14.885353 0.000000
								}
							}
						}
					}
				}
				JOINT RightShoulder
				{
					OFFSET -6.197800 13.665199 -4.064700
					CHANNELS 3 Xrotation Yrotation Zrotation
					JOINT RightArm
					{
						OFFSET -7.778100 -0.187103 -1.709300
						CHANNELS 3 Xrotation Yrotation Zrotation
						JOINT RightForeArm
						{
							OFFSET -22.049376 0.000000 0.000000
							CHANNELS 3 Xrotation Yrotation Zrotation
							JOINT RightHand
							{
								OFFSET -23.009392 0.000000 0.000000
								CHANNELS 3 Xrotation Yrotation Zrotation
								JOINT RightHandThumb1
								{
									OFFSET -3.507191 -2.063065 3.133727
									CHANNELS 3 Xrotation Yrotation Zrotation
									JOINT RightHandThumb2
									{
										OFFSET -3.101337 -1.790558 1.790558
										CHANNELS 3 Xrotation Yrotation Zrotation
										JOINT RightHandThumb3
										{
											OFFSET -3.058640 -1.765907 1.765906
											CHANNELS 3 Xrotation Yrotation Zrotation
											End Site
											{
												OFFSET 0.415260 3.926476 -0.049563
											}
										}
									}
								}
								JOINT RightHandIndex1
								{
									OFFSET -11.334419 -0.901459 3.706815
									CHANNELS 3 Xrotation Yrotation Zrotation
									JOINT RightHandIndex2
									{
										OFFSET -3.283112 0.000000 0.000000
										CHANNELS 3 Xrotation Yrotation Zrotation
										JOINT RightHandIndex3
										{
											OFFSET -3.323853 0.000000 0.000000
											CHANNELS 3 Xrotation Yrotation Zrotation
											End Site
											{
												OFFSET 1.135597 3.097809 0.402452
											}
										}
									}
								}
								JOINT RightHandMiddle1
								{
									OFFSET -11.335861 0.000000 0.000000
									CHANNELS 3 Xrotation Yrotation Zrotation
									JOINT RightHandMiddle2
									{
										OFFSET -3.410492 0.000000 0.000000
										CHANNELS 3 Xrotation Yrotation Zrotation
										JOINT RightHandMiddle3
										{
											OFFSET -3.312172 0.000000 0.000000
											CHANNELS 3 Xrotation Yrotation Zrotation
											End Site
											{
												OFFSET 1.150200 3.080154 0.400270
											}
										}
									}
								}
								JOINT RightHandRing1
								{
									OFFSET -11.514786 -0.013176 -3.003090
									CHANNELS 3 Xrotation Yrotation Zrotation
									JOINT RightHandRing2
									{
										OFFSET -3.053307 0.000000 0.000000
										CHANNELS 3 Xrotation Yrotation Zrotation
										JOINT RightHandRing3
										{
											OFFSET -3.295807 0.000000 0.000000
											CHANNELS 3 Xrotation Yrotation Zrotation
											End Site
											{
												OFFSET 1.281006 3.013344 0.375733
											}
										}
									}
								}
								JOINT RightHandPinky1
								{
									OFFSET -10.518692 -0.960396 -5.730441
									CHANNELS 3 Xrotation Yrotation Zrotation
									JOINT RightHandPinky2
									{
										OFFSET -2.861649 0.000000 0.000000
										CHANNELS 3 Xrotation Yrotation Zrotation
										JOINT RightHandPinky3
										{
											OFFSET -2.863380 0.000000 0.000000
											CHANNELS 3 Xrotation Yrotation Zrotation
											End Site
											{
												OFFSET 0.843597 2.711159 0.369971
											}
										}
									}
								}
							}
							JOINT RSleeve
							{
								OFFSET -6.676277 -0.344902 -1.011730
								CHANNELS 3 Xrotation Yrotation Zrotation
								End Site
								{
									OFFSET 0.000000 14.885353 0.000000
								}
							}
						}
					}
				}
				JOINT Backpack
				{
					OFFSET 0.000000 -2.471497 36.677502
					CHANNELS 3 Xrotation Yrotation Zrotation
					End Site
					{
						OFFSET 0.000000 20.427315 0.000000
					}
				}
				JOINT Hood
				{
					OFFSET 0.000000 18.754097 -10.431000
					CHANNELS 3 Xrotation Yrotation Zrotation
					JOINT Hood1
					{
						OFFSET 0.000000 -5.011002 -7.685901
						CHANNELS 3 Xrotation Yrotation Zrotation
						End Site
						{
							OFFSET 0.000000 9.175140 0.000000
						}
					}
				}
				JOINT LHoodieString
				{
					OFFSET 5.250500 16.397697 3.089900
					CHANNELS 3 Xrotation Yrotation Zrotation
					JOINT LHoodieString1
					{
						OFFSET 0.257700 -6.364304 3.694600
						CHANNELS 3 Xrotation Yrotation Zrotation
						JOINT LHoodieString2
						{
							OFFSET 0.000000 -9.643799 2.679100
							CHANNELS 3 Xrotation Yrotation Zrotation
							End Site
							{
								OFFSET 0.000000 10.009018 0.000000
							}
						}
					}
				}
				JOINT RHoodieString
				{
					OFFSET -5.250500 16.397697 3.089900
					CHANNELS 3 Xrotation Yrotation Zrotation
					JOINT RHoodieString1
					{
						OFFSET -0.257700 -6.364304 3.694600
						CHANNELS 3 Xrotation Yrotation Zrotation
						JOINT RHoodieString2
						{
							OFFSET 0.000000 -9.643799 2.679100
							CHANNELS 3 Xrotation Yrotation Zrotation
							End Site
							{
								OFFSET 0.000000 10.009018 0.000000
							}
						}
					}
				}
			}
			JOINT LBackpack_Strap
			{
				OFFSET 15.223200 -7.719803 -6.610900
				CHANNELS 3 Xrotation Yrotation Zrotation
				End Site
				{
					OFFSET 0.000000 16.040596 0.000000
				}
			}
			JOINT RBackpack_Strap
			{
				OFFSET -15.223000 -7.719803 -6.610900
				CHANNELS 3 Xrotation Yrotation Zrotation
				End Site
				{
					OFFSET 0.000000 16.040596 0.000000
				}
			}
		}
	}
	JOINT BoyFacialAnim_Joint
	{
		OFFSET 1.000000 -82.208099 -1.550900
		CHANNELS 3 Xrotation Yrotation Zrotation
		End Site
		{
			OFFSET 0.000000 30.012791 0.000000
		}
	}
}
MOTION
Frames: 5
Frame Time: 0.033333
-93.468887 74.897591 -0.351392 5.504875 -8.682100 9.859016 0.000000 0.000001 -0.000001 -51.670729 -15.538242 -6.894127 47.622299 29.740392 9.487592 21.119237 -0.819214 3.767684 -0.000001 0.000001 0.000001 -0.000001 0.000001 0.000000 -0.000000 -0.000000 -0.000001 -58.660240 -35.265725 -46.437298 57.906371 25.803495 -0.475846 -22.522173 0.524807 -8.331706 0.000000 -0.000004 -0.000000 0.000000 -0.000004 -0.000000 -0.000000 0.000001 0.000000 -1.543494 0.697595 0.838084 -3.082703 1.070385 0.898446 -3.082705 1.070381 0.898452 2.839722 -20.811851 -1.013739 8.432849 -42.047973 22.969431 -0.000001 0.000001 -0.000000 -0.000001 0.000001 -0.000000 -0.000001 0.000001 -0.000000 0.955028 1.901793 -17.168766 10.648107 22.692076 -41.196863 37.922276 -27.091069 -12.537962 32.310220 -6.526627 0.622090 -11.704835 -6.638689 -13.043701 1.802580 5.540935 2.039525 0.000001 0.000000 -0.000001 0.803908 -6.865179 -17.143809 0.067993 0.764262 -16.879055 -0.000004 0.000000 -0.000005 -0.059326 2.240029 -19.611450 -0.237545 -0.987286 -16.457655 -0.000000 -0.000001 0.000000 2.753220 14.668653 -28.464345 -0.224751 -1.962398 -18.752172 -0.000004 -0.000004 0.000001 1.240906 23.305528 -17.148841 -0.497142 -5.426413 -20.961253 -0.000001 0.000000 0.000003 0.000002 -0.000001 -0.000001 4.731941 6.057968 18.106014 3.281546 -8.378582 37.782144 45.851309 15.887169 9.996310 38.317542 9.206686 -11.295500 1.222542 1.671677 4.303670 0.486846 -2.588857 -1.661965 0.000000 -0.000000 0.000001 -1.305821 0.958323 13.450248 -0.008175 -0.742433 20.831524 -0.000001 0.000000 0.000004 -1.467149 -0.137930 21.912034 -0.143922 0.495426 14.494565 -0.000000 0.000001 -0.000000 -7.425724 -9.070426 27.853341 -0.239756 2.216168 17.045323 -0.000001 -0.000000 0.000002 -5.871178 -14.157258 29.160178 -0.859238 6.943493 26.271093 -0.000001 -0.000000 -0.000002 -0.000000 -0.000000 -0.000000 -0.000000 -0.000000 0.000000 -0.000000 -0.000000 0.000000 -0.000000 -0.000000 0.000000 -0.000000 -0.000000 0.000000 -0.000000 -0.000000 0.000000 -0.000000 -0.000000 0.000000 -0.000000 -0.000000 0.000000 -0.000000 -0.000000 0.000000 -0.000000 -0.000000 0.000000 -0.000000 -0.000000 0.000001 -0.000000 -0.000000 0.000001 0.000000 0.000001 -0.000001 
-96.455811 75.531296 -0.407849 5.603723 -9.041218 10.131573 -0.000000 0.000000 -0.000000 -53.395222 -14.462992 -10.458730 46.406689 29.525576 7.805316 18.464510 -1.612714 -1.131632 -0.000003 0.000000 -0.000001 -0.000003 0.000000 -0.000000 -0.000000 0.000000 -0.000001 -56.221661 -37.915398 -44.479445 55.663819 26.068803 0.862578 -23.250758 1.486516 -10.841737 -0.000000 0.000001 -0.000000 -0.000000 0.000001 -0.000000 -0.000000 0.000002 0.000001 -1.515593 0.625433 0.716701 -3.030360 1.005602 0.939055 -3.030359 1.005601 0.939055 3.301377 -20.642165 -0.228955 7.858940 -41.780967 22.489544 -0.000001 -0.000001 0.000001 -0.000001 -0.000001 0.000001 -0.000001 -0.000001 0.000001 0.974745 2.209290 -17.152608 11.183017 23.146944 -41.760296 37.897035 -26.697507 -12.946466 32.609123 -6.157904 -0.134383 -11.704839 -6.638686 -13.043702 1.802580 5.540935 2.039527 -0.000001 -0.000001 0.000000 0.803908 -6.865178 -17.143812 0.067992 0.764262 -16.879055 -0.000002 0.000000 -0.000004 -0.008784 2.389816 -18.037604 -0.166563 -0.726401 -13.986715 0.000003 -0.000000 -0.000001 2.960879 15.289819 -26.752067 -0.172082 -1.806690 -16.052852 -0.000000 -0.000002 0.000003 1.310699 23.814436 -15.538175 -0.483867 -5.390254 -19.159509 -0.000000 0.000000 -0.000002 0.000001 0.000002 0.000001 4.702326 6.382859 18.353663 3.050289 -8.145418 37.335371 45.732717 15.982889 10.002586 38.090531 9.240807 -11.552351 0.973842 1.628420 3.850532 0.544093 -2.716390 -1.679676 0.000001 0.000001 0.000001 -1.303156 0.947126 13.302975 -0.003812 -0.753956 20.708531 -0.000001 0.000002 0.000000 -1.458454 -0.159715 21.613133 -0.141169 0.484757 14.371352 0.000002 0.000001 0.000004 -7.169982 -8.955233 27.514932 -0.236830 2.205958 16.921980 -0.000000 0.000000 0.000000 -5.615156 -14.034802 28.633394 -0.855010 6.935017 26.147277 0.000001 -0.000001 -0.000000 0.000001 -0.000000 -0.000000 -0.000000 -0.000000 0.000001 -0.000000 -0.000000 0.000001 -0.000000 -0.000000 0.000001 -0.000000 -0.000000 0.000001 -0.000000 -0.000000 0.000001 0.000000 0.000000 0.000001 -0.000000 -0.000000 0.000001 -0.000000 -0.000000 0.000001 0.000000 0.000000 0.000001 0.000000 -0.000000 0.000000 0.000000 -0.000000 0.000000 -0.000000 0.000000 -0.000000 
-99.316940 76.005280 -0.482021 5.688763 -9.169451 10.012887 0.000000 -0.000001 -0.000000 -54.404837 -13.949446 -13.874835 43.073239 28.350507 6.341769 17.926682 -2.197596 -7.173319 0.000000 0.000000 0.000000 0.000000 0.000000 0.000001 0.000000 0.000000 -0.000000 -53.308015 -40.746402 -42.212680 53.075085 26.271267 2.506678 -23.729988 2.453948 -13.214855 0.000000 -0.000000 0.000000 0.000000 -0.000000 0.000000 0.000001 0.000001 -0.000000 -1.504392 0.568329 0.680885 -3.010902 0.961168 1.096032 -3.010901 0.961166 1.096031 3.236611 -20.659316 0.508605 7.485963 -41.601005 21.985472 0.000001 0.000000 -0.000000 0.000001 0.000000 -0.000000 0.000001 0.000000 -0.000000 0.975976 2.292444 -17.073569 11.385759 23.462038 -42.073771 37.598880 -25.948251 -13.352385 32.709130 -6.080223 -0.453761 -11.704835 -6.638686 -13.043703 1.802586 5.540936 2.039526 -0.000004 -0.000001 0.000000 0.803908 -6.865178 -17.143812 0.067989 0.764260 -16.879054 0.000002 0.000000 -0.000002 0.029775 2.515361 -16.742534 -0.116629 -0.509571 -11.953542 0.000002 -0.000001 0.000002 3.104759 15.810247 -25.333911 -0.133554 -1.674124 -13.786111 -0.000002 0.000001 -0.000002 1.345746 24.238248 -14.199013 -0.473449 -5.359036 -17.621174 -0.000001 0.000000 -0.000000 -0.000002 0.000000 -0.000002 4.716818 6.503268 18.658436 2.880607 -8.078203 36.923477 45.687470 16.048004 10.048372 38.060338 9.400505 -11.866026 0.636382 1.572951 3.236336 0.621587 -2.889155 -1.703485 0.000001 0.000001 0.000001 -1.299602 0.931984 13.103504 0.002091 -0.769631 20.541883 -0.000001 0.000001 0.000002 -1.446873 -0.189293 21.208205 -0.137471 0.470270 14.204452 0.000001 0.000001 -0.000002 -6.821569 -8.804250 27.056063 -0.232873 2.192101 16.754913 -0.000000 -0.000000 0.000002 -5.265096 -13.876639 27.919745 -0.849336 6.923508 25.979560 -0.000000 -0.000002 0.000003 0.000002 0.000000 -0.000000 -0.000000 -0.000000 0.000002 -0.000000 -0.000000 0.000002 -0.000000 -0.000000 0.000002 -0.000000 -0.000000 0.000002 -0.000000 -0.000000 0.000002 -0.000000 -0.000000 0.000002 -0.000000 -0.000000 0.000002 -0.000000 -0.000000 0.000002 -0.000000 -0.000000 0.000002 -0.000000 -0.000001 0.000001 -0.000000 -0.000001 0.000001 0.000000 -0.000001 -0.000000 
-102.109055 76.273788 -0.548628 5.730454 -9.293405 9.572413 -0.000000 -0.000001 0.000000 -54.963656 -13.674128 -17.031364 39.012678 27.039401 5.045006 18.281150 -2.656469 -13.447036 0.000000 -0.000000 -0.000001 0.000000 -0.000000 -0.000001 0.000001 0.000000 0.000001 -49.719399 -43.521163 -39.235414 50.448778 26.366721 4.220115 -24.183473 3.380734 -15.507989 0.000000 -0.000000 -0.000000 0.000000 -0.000000 -0.000000 0.000001 -0.000000 0.000001 -1.481399 0.578588 0.736118 -2.967388 1.031004 1.329286 -2.967389 1.031002 1.329288 2.950869 -20.618024 1.207282 7.030573 -41.287343 21.452449 -0.000002 0.000000 0.000000 -0.000002 0.000000 0.000000 -0.000002 0.000000 0.000000 0.960486 2.319350 -16.741724 11.277903 23.507979 -42.262294 37.189414 -25.190890 -13.646616 32.755719 -6.117599 -0.458170 -11.704841 -6.638686 -13.043698 1.802581 5.540936 2.039525 -0.000001 0.000000 -0.000000 0.803908 -6.865179 -17.143811 0.067991 0.764261 -16.879057 -0.000000 0.000000 -0.000004 0.055030 2.604273 -15.838227 -0.086340 -0.357169 -10.533965 0.000001 -0.000001 0.000002 3.190497 16.183775 -24.309827 -0.108432 -1.575035 -12.108395 -0.000001 0.000001 -0.000004 1.356979 24.541112 -13.227883 -0.466105 -5.335095 -16.451161 -0.000002 0.000002 -0.000002 0.000001 0.000000 0.000000 4.720017 6.774082 19.092867 2.828560 -8.285750 36.416776 45.694898 16.020945 10.181238 38.064484 9.545016 -12.073105 0.222692 1.510014 2.484385 0.716337 -3.100586 -1.732274 0.000000 0.000000 -0.000001 -1.295314 0.913441 12.859384 0.009226 -0.788778 20.338005 -0.000001 -0.000000 0.000002 -1.432952 -0.225571 20.712725 -0.133026 0.452561 14.000216 0.000000 0.000001 -0.000000 -6.392301 -8.627489 26.494036 -0.228079 2.175169 16.550457 0.000000 0.000001 0.000000 -4.831943 -13.695310 27.046630 -0.842436 6.909373 25.774311 -0.000000 -0.000001 -0.000002 0.000001 0.000000 0.000000 -0.000000 -0.000001 -0.000001 -0.000000 -0.000001 -0.000001 -0.000000 -0.000001 -0.000001 -0.000000 -0.000001 -0.000001 -0.000000 -0.000001 0.000000 0.000000 0.000000 0.000000 -0.000000 -0.000001 -0.000001 -0.000000 -0.000001 0.000000 0.000000 0.000000 0.000000 0.000000 -0.000000 -0.000000 0.000000 -0.000000 -0.000000 -0.000000 -0.000001 0.000000 
-104.893501 76.342651 -0.595105 5.724324 -9.529696 8.887550 0.000000 0.000001 -0.000001 -55.159529 -13.236038 -19.846464 35.095728 26.239316 3.766701 18.903795 -3.049893 -18.724523 0.000000 0.000000 0.000000 0.000000 0.000000 0.000000 -0.000001 -0.000000 -0.000000 -45.254019 -46.036322 -35.232452 47.888171 26.304860 5.824079 -24.694511 4.211936 -17.695082 -0.000000 0.000000 0.000000 -0.000000 0.000000 0.000000 -0.000003 -0.000001 -0.000002 -1.440206 0.643553 0.857288 -2.887509 1.191147 1.602617 -2.887511 1.191153 1.602616 2.884187 -20.364704 2.032714 6.253290 -40.732946 20.812935 -0.000000 -0.000001 0.000001 -0.000000 -0.000001 0.000001 -0.000000 -0.000001 0.000001 0.930037 2.441682 -16.054158 11.015791 23.300878 -42.418822 36.916899 -24.727923 -13.750256 32.910420 -6.069578 -0.334346 -11.704842 -6.638687 -13.043701 1.802586 5.540937 2.039526 -0.000000 -0.000000 -0.000000 0.803905 -6.865180 -17.143811 0.067987 0.764261 -16.879050 0.000001 0.000002 -0.000005 0.067973 2.652314 -15.353775 -0.071670 -0.275243 -9.773491 0.000002 0.000001 -0.000001 3.230575 16.396253 -23.701644 -0.094167 -1.512608 -11.056662 0.000001 -0.000003 -0.000001 1.356319 24.712965 -12.647561 -0.461523 -5.319215 -15.677277 0.000002 0.000001 -0.000005 -0.000001 0.000001 0.000001 4.670846 7.401467 19.710418 2.844440 -8.719700 35.722822 45.690858 15.863645 10.396474 37.973779 9.599036 -12.111246 -0.248162 1.445091 1.629760 0.823817 -3.340812 -1.764593 0.000000 0.000000 -0.000000 -1.290555 0.892334 12.582109 0.017276 -0.810607 20.106415 -0.000001 0.000001 0.000004 -1.417536 -0.266938 20.149902 -0.128051 0.432395 13.768230 0.000000 0.000001 -0.000000 -5.900892 -8.437457 25.854974 -0.222745 2.155933 16.318264 -0.000001 0.000000 0.000002 -4.333874 -13.505850 26.055066 -0.834669 6.893328 25.541187 0.000000 0.000001 -0.000003 0.000000 -0.000000 -0.000000 0.000000 0.000000 -0.000000 0.000000 0.000000 -0.000000 0.000000 0.000000 -0.000000 0.000000 0.000000 -0.000000 0.000000 0.000000 -0.000000 0.000000 0.000001 -0.000000 0.000000 0.000000 -0.000000 0.000000 0.000000 -0.000000 0.000000 0.000001 -0.000000 0.000000 0.000000 0.000000 0.000000 0.000000 0.000000 0.000000 0.000001 -0.000001 
